<?xml version="1.0" encoding="UTF-8" standalone="no"?>
<!-- Created with Inkscape (http://www.inkscape.org/) -->

<svg
   xmlns:dc="http://purl.org/dc/elements/1.1/"
   xmlns:cc="http://creativecommons.org/ns#"
   xmlns:rdf="http://www.w3.org/1999/02/22-rdf-syntax-ns#"
   xmlns:svg="http://www.w3.org/2000/svg"
   xmlns="http://www.w3.org/2000/svg"
   xmlns:sodipodi="http://sodipodi.sourceforge.net/DTD/sodipodi-0.dtd"
   xmlns:inkscape="http://www.inkscape.org/namespaces/inkscape"
   width="57.169571mm"
   height="59.459339mm"
   viewBox="0 0 202.56935 210.6827"
   id="svg2"
   version="1.1"
   inkscape:version="0.92pre2 r"
   sodipodi:docname="ukerdevroom-logo.svg"
   inkscape:export-filename="/home/jermar/ukerdevroom.png"
   inkscape:export-xdpi="109.56"
   inkscape:export-ydpi="109.56">
  <defs
     id="defs4" />
  <sodipodi:namedview
     id="base"
     pagecolor="#ffffff"
     bordercolor="#666666"
     borderopacity="1.0"
     inkscape:pageopacity="0.0"
     inkscape:pageshadow="2"
     inkscape:zoom="0.81245791"
     inkscape:cx="-148.69104"
     inkscape:cy="50.627821"
     inkscape:document-units="px"
     inkscape:current-layer="layer1"
     showgrid="false"
     showguides="false"
     inkscape:snap-text-baseline="false"
     inkscape:window-width="1920"
     inkscape:window-height="1043"
     inkscape:window-x="1366"
     inkscape:window-y="0"
     inkscape:window-maximized="1">
    <inkscape:grid
       type="xygrid"
       id="grid3340"
       originx="-60.184408"
       originy="-651.15932" />
  </sodipodi:namedview>
  <metadata
     id="metadata7">
    <rdf:RDF>
      <cc:Work
         rdf:about="">
        <dc:format>image/svg+xml</dc:format>
        <dc:type
           rdf:resource="http://purl.org/dc/dcmitype/StillImage" />
        <dc:title />
      </cc:Work>
    </rdf:RDF>
  </metadata>
  <g
     inkscape:label="Layer 1"
     inkscape:groupmode="layer"
     id="layer1"
     transform="translate(-60.184408,-190.52019)">
    <flowRoot
       xml:space="preserve"
       id="flowRoot4555"
       style="font-style:normal;font-weight:normal;font-size:40px;line-height:25px;font-family:sans-serif;letter-spacing:0px;word-spacing:0px;fill:#000000;fill-opacity:1;stroke:none;stroke-width:1px;stroke-linecap:butt;stroke-linejoin:miter;stroke-opacity:1"><flowRegion
         id="flowRegion4557"><rect
           id="rect4559"
           width="54.156651"
           height="52.925819"
           x="535.41235"
           y="264.62909" /></flowRegion><flowPara
         id="flowPara4561" /></flowRoot>    <flowRoot
       xml:space="preserve"
       id="flowRoot4563"
       style="font-style:normal;font-weight:normal;font-size:40px;line-height:25px;font-family:sans-serif;letter-spacing:0px;word-spacing:0px;fill:#000000;fill-opacity:1;stroke:none;stroke-width:1px;stroke-linecap:butt;stroke-linejoin:miter;stroke-opacity:1"><flowRegion
         id="flowRegion4565"><rect
           id="rect4567"
           width="2.4616659"
           height="44.309986"
           x="578.49152"
           y="281.86075" /></flowRegion><flowPara
         id="flowPara4569" /></flowRoot>    <flowRoot
       xml:space="preserve"
       id="flowRoot4571"
       style="font-style:normal;font-weight:normal;font-size:40px;line-height:25px;font-family:sans-serif;letter-spacing:0px;word-spacing:0px;fill:#000000;fill-opacity:1;stroke:none;stroke-width:1px;stroke-linecap:butt;stroke-linejoin:miter;stroke-opacity:1"><flowRegion
         id="flowRegion4573"><rect
           id="rect4575"
           width="1.2308329"
           height="60.310818"
           x="563.7215"
           y="278.16824" /></flowRegion><flowPara
         id="flowPara4577" /></flowRoot>    <flowRoot
       xml:space="preserve"
       id="flowRoot4581"
       style="font-style:normal;font-weight:normal;font-size:40px;line-height:25px;font-family:sans-serif;letter-spacing:0px;word-spacing:0px;fill:#000000;fill-opacity:1;stroke:none;stroke-width:1px;stroke-linecap:butt;stroke-linejoin:miter;stroke-opacity:1"><flowRegion
         id="flowRegion4583"><rect
           id="rect4585"
           width="392.63574"
           height="136.62247"
           x="289.24576"
           y="184.62494" /></flowRegion><flowPara
         id="flowPara4587" /></flowRoot>    <g
       id="g4504">
      <path
         inkscape:connector-curvature="0"
         id="path4225"
         d="M 132.82531,382.11674 C 107.97749,365.6756 100.49025,359.94767 82.05345,343.27501 70.15918,332.51886 60.4358,323.10436 60.44595,322.35391 c 0.0101,-0.75046 2.22291,-11.05728 4.91726,-22.90405 3.86284,-16.98445 8.06539,-30.12923 19.87242,-62.15706 8.23548,-22.33962 15.45073,-41.15582 16.03389,-41.81377 0.58316,-0.65796 12.54773,-2.12495 26.58793,-3.25997 24.94375,-2.01648 26.30699,-2.0024 59.60066,0.61569 18.74017,1.47366 34.39821,3.00456 34.79565,3.40199 0.39744,0.39744 6.82482,16.37091 14.28307,35.4966 11.21189,28.75141 14.59587,39.06559 19.53885,59.55338 3.28812,13.62866 6.16863,25.95847 6.40114,27.39957 0.33113,2.05252 -5.0438,7.72388 -24.80936,26.17759 -21.74285,20.29976 -28.50811,25.77217 -48.9225,39.57329 -13.02974,8.80873 -24.38417,16.22935 -25.23208,16.49026 -0.84791,0.26092 -14.65732,-8.2039 -30.68757,-18.81069 z"
         style="fill:#3366cc;fill-opacity:1;stroke:#ffffff;stroke-width:0.523;stroke-miterlimit:4;stroke-dasharray:none;stroke-opacity:0" />
      <g
         id="g4497">
        <path
           style="fill:#ffcc00;fill-opacity:1;stroke:#ffffff;stroke-width:0.48240671;stroke-miterlimit:4;stroke-dasharray:none;stroke-opacity:0"
           d="M 135.18625,375.37848 C 112.45261,360.08965 105.60242,354.76317 88.73431,339.25904 77.85207,329.25675 68.956,320.50208 68.96528,319.80423 c 0.009,-0.69787 2.03378,-10.28232 4.49888,-21.29878 3.53417,-15.79406 7.37915,-28.01757 18.18158,-57.80069 7.53476,-20.77391 14.1361,-38.27134 14.66964,-38.88317 0.53354,-0.61185 11.48011,-1.97602 24.3257,-3.0315 22.82141,-1.87515 24.06866,-1.86206 54.52955,0.57254 17.14566,1.37038 31.47143,2.79398 31.83506,3.16356 0.36362,0.36958 6.24413,15.22352 13.06779,33.00876 10.25793,26.73633 13.35399,36.32762 17.87639,55.37948 3.00835,12.67348 5.64378,24.13913 5.85651,25.47923 0.30295,1.90867 -4.61466,7.18253 -22.69847,24.34289 -19.89286,18.87702 -26.08249,23.96589 -44.75992,36.79974 -11.92112,8.19135 -22.30945,15.09189 -23.08522,15.33451 -0.77576,0.24263 -13.4102,-7.62892 -28.07652,-17.49232 z"
           id="path4225-2"
           inkscape:connector-curvature="0" />
        <g
           aria-label="μ"
           transform="scale(1.0214241,0.97902526)"
           style="font-style:italic;font-variant:normal;font-weight:normal;font-stretch:normal;font-size:202.4964447px;line-height:125%;font-family:'Nimbus Roman No9 L';-inkscape-font-specification:'Nimbus Roman No9 L Italic';text-align:center;letter-spacing:0px;word-spacing:0px;text-anchor:middle;fill:#3366cc;fill-opacity:1;stroke:none;stroke-width:1px;stroke-linecap:butt;stroke-linejoin:miter;stroke-opacity:1"
           id="text4227">
          <path
             d="m 211.523,234.14762 h -17.81969 l -14.78224,63.38139 c -7.08737,9.11234 -15.99722,14.17475 -24.70456,14.17475 -8.50485,0 -13.97226,-5.4674 -13.97226,-13.97225 0,-1.82247 0.2025,-4.65742 0.60749,-6.0749 L 154.419,234.14762 h -17.81968 l -17.2122,75.73367 c -1.21498,5.46741 -3.23995,11.13731 -6.88488,20.24965 -6.07489,11.74479 -7.69487,16.8072 -7.69487,23.89458 0,6.07489 2.22746,9.11234 6.88488,9.11234 8.70735,0 14.37725,-11.3398 14.37725,-28.95699 0,-1.82247 0,-5.26491 -0.2025,-8.50485 -0.20249,-3.64494 -0.20249,-6.27739 -0.20249,-8.50485 0,-3.23995 0.20249,-5.46741 0.40499,-9.71983 3.84743,10.52981 10.12482,15.38973 20.85713,15.38973 10.73232,0 20.45215,-5.6699 31.18446,-18.22468 -0.60749,2.83495 -0.80999,4.25242 -0.80999,6.27739 0,7.89736 3.84743,11.94729 11.5423,11.94729 7.89736,0 13.16227,-2.83495 21.66712,-11.5423 l 0.60749,-1.82247 c -5.06241,3.84743 -7.89736,5.26491 -11.3398,5.26491 -3.44244,0 -5.26491,-2.02497 -5.26491,-5.6699 0,-2.02497 0,-2.42996 1.21498,-6.88488 z"
             style="font-style:italic;font-variant:normal;font-weight:normal;font-stretch:normal;font-family:'Nimbus Roman No9 L';-inkscape-font-specification:'Nimbus Roman No9 L Italic';text-align:center;text-anchor:middle;fill:#3366cc;fill-opacity:1"
             id="path4491" />
        </g>
      </g>
    </g>
  </g>
</svg>
